<svg width="128" height="64" viewBox="0 0 128 64" xmlns="http://www.w3.org/2000/svg">
  <path d="M10,40 C10,35 25,25 35,25 L50,20 C50,20 60,15 70,20 L85,25 C85,25 90,30 90,40 C90,50 85,55 80,55 L75,60 M75,40 L80,30"
        fill="#EEEEEE" stroke="black" stroke-width="2"/>
  <path d="M85,25 Q90,15 95,15 L105,20 Q100,30 95,30 Z" fill="#EEEEEE" stroke="black" stroke-width="2"/>
  <path d="M80,18 Q85,10 75,12 L70,18 Z" fill="black"/>
  <!-- Front Leg High -->
  <path d="M70,50 L65,70 L70,75" stroke="black" stroke-width="4" fill="none"/>
  <!-- Back Leg High -->
  <path d="M35,50 L25,45 L15,50" stroke="black" stroke-width="4" fill="none"/>
  <path d="M25,35 Q15,35 15,50" stroke="black" stroke-width="3" fill="none"/>
</svg>
